<?xml version="1.0" encoding="UTF-8"?>
<svg id="Layer_1" xmlns="http://www.w3.org/2000/svg" version="1.1" viewBox="0 0 1920 722.78">
  <!-- Generator: Adobe Illustrator 29.7.1, SVG Export Plug-In . SVG Version: 2.1.1 Build 8)  -->
  <defs>
    <style>
      .st0 {
        fill: #fff;
      }

      .st0, .st1, .st2, .st3, .st4 {
        fill-rule: evenodd;
      }

      .st5, .st2 {
        fill: #231f20;
      }

      .st1 {
        fill: #f1c8b2;
      }

      .st3 {
        fill: #c6dc6a;
      }

      .st4 {
        fill: #3fc1cc;
      }
    </style>
  </defs>
  <path class="st2" d="M1841.88,373.88c21.32,0,38.6,17.12,38.6,38.24s-17.28,38.24-38.6,38.24-38.6-17.12-38.6-38.24,17.28-38.24,38.6-38.24M1828.72,407.24h8.4c5.45,0,8.85-.22,10.22-.68,1.35-.46,2.41-1.25,3.18-2.36.76-1.12,1.16-2.5,1.16-4.18,0-1.89-.51-3.39-1.52-4.55-1.01-1.16-2.44-1.88-4.28-2.19-.92-.11-3.69-.18-8.3-.18h-8.85v14.14h-.01ZM1817.35,439.41v-55.74h23.92c6.01,0,10.37.51,13.1,1.5,2.73,1,4.92,2.78,6.55,5.34,1.63,2.57,2.45,5.49,2.45,8.78,0,4.18-1.25,7.64-3.72,10.37-2.48,2.71-6.2,4.44-11.14,5.14,2.46,1.43,4.49,2.99,6.09,4.69s3.75,4.71,6.46,9.05l6.88,10.87h-13.59l-8.22-12.13c-2.92-4.34-4.91-7.06-5.99-8.19s-2.21-1.9-3.42-2.32c-1.2-.42-3.1-.62-5.72-.62h-2.29v23.27h-11.37.01ZM1841.88,365.26c26.13,0,47.3,20.98,47.3,46.86s-21.18,46.86-47.3,46.86-47.3-20.98-47.3-46.86,21.18-46.86,47.3-46.86Z"/>
  <path class="st2" d="M55.43,161.68l38.09-35.48c18.82-12.09,38.91-22.23,60.33-27.76,5.99-1.55,12.14-2.48,18.33-2.89,14.62-28.15,35.31-52.24,64.62-63.7,23.64-9.24,49.99-9.3,74.36-3.41,21.34,5.16,41.84,16.23,57.89,32.03,45.82,45.11,60.9,116.38,52.26,179.94-2.95,21.77-10.41,45.59-23.98,62.89-9.96,12.7-23.52,22.07-39.4,23.64-8.34.82-16.86-.4-24.84-3.09l-12.96-5.69-10.71-6.83c-2.61,6.56-5.75,12.85-8.6,18.59l-11.32,21.45-15.61,26.58-20.51,32.3.36-.6-9.78,15.19-10.08,11.54-5.25,4.44c-8.12,6.43-18.69,9.5-28.71,7.24-11.26-2.54-22.1-12.06-27.74-22.35-10.14-18.51-17.93-38.42-22.85-59.14l-5.99-45.38-37.45-10.15c-7.62-2.9-15.23-6.34-21.62-11.56-18.62-15.2-31.82-35.86-44.19-56.59-9.02-15.1-12.28-35.34-6.07-52.11,4.07-11.02,12.38-19.13,19.81-27.63.49-.57,1.03-1.06,1.6-1.49M162.13,323.36c3.06,23.38,8.24,46.39,16.1,68.22,4.92,13.64,10.91,24.85,21.58,33.54,3.98,3.25,9.73,2.61,13.87.24,10.26-5.86,16.09-17,22.5-26.69l50.75-89.31-7.77,4.18-30.96,8.77-33.35,4.03-52.74-3,.02.02ZM383.99,286.48c3.04-4.44,5.54-9.28,7.47-14.08,15.14-37.77,15.21-82.18,4.78-121.35-5.03-18.87-12.33-37.33-23.18-53.26-16.27-23.87-39.19-41.82-66.54-48.39-20.43-4.91-42.64-5.16-62.48,2.58-21.19,8.27-36.98,24.7-48.82,44.39,18.21,2.29,36.21,7.27,52.79,15.49,44.54,22.08,80.9,59.9,107.53,102.92,10.74,17.35,19.55,36.13,25.33,55.92,1.36,4.64,2.56,10.1,3.13,15.77h-.01ZM159.96,302.67c7.34,1.03,14.74,1.73,22.15,2.13,30.58,1.66,59.29-8.79,89.94-11.41,45.27-3.88,22.39-4.5,71.92,6.23,4.42.96,12.21,5.42,17.19,3.19,2.38-1.06,3.06-6.62,2.69-8.72-2.46-14.09-5.36-28.17-11.3-41.06-13.83-29.94-33.46-57.82-56.69-80.45-16.86-16.42-35.69-30.85-56.44-41.22-16.93-8.46-35.95-13.73-54.85-14.24-6.15,14.01-10.81,28.72-14.38,42.72l-11.18,83.02c-.84,19.7-.64,39.79.95,59.8h0ZM68.91,177.7c-7.35,8.35-17.17,16.97-17.7,29.3-.37,8.65,2.53,18.58,6.93,25.81,10.76,17.72,21.85,35.85,37.8,49.03,5.08,4.2,11.19,6.87,17.27,9.14,8.91,3.34,18.01,6.01,27.22,8.11l-1.71-12.96c-1.89-43.84.72-89.19,11.67-131.72,3.06-11.87,6.82-24.02,11.44-35.86-7.33,1.06-14.53,2.83-21.25,5.96-19.15,8.94-37.78,19.67-53.46,34.3l-18.21,18.87v.02Z"/>
  <path class="st1" d="M162.13,323.36c3.06,23.38,8.24,46.39,16.1,68.22,4.92,13.64,10.91,24.85,21.58,33.54,3.98,3.25,9.73,2.61,13.87.24,10.26-5.86,16.09-17,22.5-26.69l50.75-89.3-7.77,4.18-30.96,8.77-33.35,4.03-52.74-3h.02Z"/>
  <path class="st3" d="M383.99,286.47c3.04-4.43,5.54-9.26,7.47-14.07,15.14-37.77,15.21-82.18,4.78-121.35-5.03-18.87-12.33-37.33-23.18-53.26-16.27-23.87-39.19-41.82-66.54-48.39-20.43-4.91-42.64-5.16-62.48,2.58-21.19,8.27-36.98,24.7-48.82,44.39,18.21,2.29,36.21,7.27,52.79,15.49,44.54,22.08,80.9,59.9,107.53,102.92,10.74,17.35,19.55,36.13,25.33,55.92,1.36,4.64,2.56,10.1,3.13,15.77"/>
  <path class="st0" d="M159.96,302.67c7.34,1.03,14.74,1.73,22.14,2.13,30.59,1.66,59.29-8.79,89.94-11.41,45.27-3.88,22.39-4.5,71.92,6.23,4.42.96,12.21,5.42,17.19,3.19,2.38-1.06,3.06-6.62,2.69-8.72-2.46-14.09-5.36-28.17-11.3-41.06-13.83-29.94-33.46-57.82-56.68-80.45-16.86-16.42-35.69-30.85-56.45-41.22-16.93-8.46-35.95-13.73-54.85-14.24-6.15,14.01-10.81,28.72-14.38,42.72l-11.18,83.02c-.84,19.7-.64,39.79.95,59.8"/>
  <path class="st4" d="M68.91,177.7c-7.35,8.35-17.17,16.97-17.7,29.3-.37,8.64,2.53,18.58,6.93,25.81,10.76,17.72,21.85,35.85,37.8,49.03,5.08,4.2,11.19,6.87,17.27,9.14,8.91,3.34,18.01,6.02,27.22,8.11l-1.71-12.96c-1.9-43.84.72-89.19,11.66-131.72,3.06-11.87,6.82-24.01,11.44-35.86-7.33,1.06-14.53,2.83-21.25,5.96-19.15,8.94-37.78,19.67-53.46,34.3l-18.21,18.87v.02Z"/>
  <g>
    <path class="st5" d="M843.29,476.61c0,1.01-.32,1.94-.97,2.79-16.23,22.47-40.09,50.26-71.59,83.38l-4.1,4.31c9.48,14.19,20.97,29.4,34.47,45.61l36.64,43.85c2.4,2.87,3.62,5.99,3.62,9.37,0,3.89-1.33,7.35-3.98,10.39-2.65,3.04-5.83,4.57-9.52,4.57-3.38,0-6.51-1.35-9.4-4.06-30.38-28.05-55.12-57.27-74.24-87.69-11.57,11.32-22.17,21.54-31.81,30.67-6.27,5.91-12.69,11.07-19.28,15.46-3.05,2.03-5.79,3.04-8.2,3.04-3.54,0-6.43-1.77-8.68-5.32-1.77-2.87-2.65-6.34-2.65-10.39s.88-6.93,2.65-9.12c5.31-6.42,12.05-13.18,20.25-20.28,4.82-4.06,12.13-10.22,21.93-18.5l11.57-10.14c-12.69-23.99-19.04-45.02-19.04-63.1,0-11.66,2.45-22.39,7.39-32.19,7.03-.17,12.21.51,15.55,2.03,3.33,1.52,4.86,3.97,4.54,7.35v9.62c0,17.91,4.83,36.33,14.46,55.25,27.64-25.68,53.99-51.87,79.06-78.56,7.55,4.06,11.33,7.94,11.33,11.66M630.21,528.81c0,13.69-.4,34.26-1.21,61.71-.8,27.45-1.21,48.02-1.21,61.7,0,5.07-1.57,9.21-4.7,12.42-3.13,3.21-7.11,4.81-11.93,4.81s-8.75-1.61-11.81-4.81c-3.05-3.21-4.59-7.35-4.59-12.42,0-13.69.41-34.25,1.21-61.7.8-27.46,1.2-48.02,1.2-61.71,10.44-6.76,18.56-10.14,24.34-10.14s8.68,3.38,8.68,10.14h.02ZM651.91,444.43c-.16-1.02-.88-1.35-2.17-1.02-.97.51-2.49,1.09-4.58,1.77-11.73,3.71-24.18,13.43-37.36,29.14,13.33-4.22,25.47-10.81,36.39-19.77,5.31-4.22,7.88-7.6,7.72-10.13h0ZM670.7,446.71c-1.44,10.65-11.41,21.71-29.88,33.2-15.27,9.46-27.64,14.19-37.12,14.19-2.89,0-5.7-.25-8.44-.76-1.93,4.22-3.45,7.77-4.58,10.64-1.93,5.41-6.03,8.11-12.29,8.11s-9.4-4.48-9.4-13.43c0-6.25,2.01-13.01,6.03-20.27-1.6-3.55-2.4-7.61-2.4-12.17,0-12.17,4.74-23.9,14.22-35.23,9.49-11.32,19.92-16.98,31.34-16.98,5.62,0,10.93,1.6,15.91,4.81l.49,2.79c-.32.68-1.37,1.27-3.14,1.78-8.68-.34-17.19,3.37-25.55,11.14-7.56,7.1-12.78,15.21-15.67,24.33,22.5-23.98,40.82-35.99,54.95-35.99,7.55,0,13.74,1.95,18.56,5.83,5.62,4.39,7.95,10.39,6.99,17.99l-.02.02ZM627.14,325.76c0,19.96-15.37,28.68-46.11,26.14-6.03-.64-16.72-1.43-32.09-2.38.6,0-21.25.48-65.54,1.43-3.62,0-10.55.15-20.79.47-9.35,30.73-17.33,58.45-23.96,83.16,28.93-3.16,50.78-4.75,65.54-4.75,17.48,0,33.3,1.74,47.46,5.23,6.63,1.58,9.95,6.66,9.95,15.21,0,6.02-2.11,9.98-6.33,11.88-16.57,7.92-37.21,11.88-61.92,11.88-3.32,0-19.44-.94-48.37-2.85l-14.46-.95c-1.81,7.92-3.02,13.94-3.62,18.06-4.52,25.98-10.7,58.29-18.54,96.95-5.12,24.71-7.83,37.55-8.13,38.49-4.22,16.16-9.34,27.57-15.37,34.22-6.03,6.66-13.71,9.98-23.05,9.98-7.84,0-14.92-2.61-21.25-7.84-6.33-5.22-10.24-11.8-11.75-19.72-.6-3.17-.9-6.82-.9-10.93,0-10.14,1.96-22.02,5.88-35.64,2.41-7.29,5.72-18.38,9.94-33.27,5.72-20.59,16.58-51.96,32.55-94.1-4.22-.32-12.2.16-23.96,1.43l-4.07.48h-2.71l-.45.48c.6-10.14,1.05-15.37,1.36-15.68,2.71-3.48,11-5.86,24.86-7.12,3.31-.32,7.83-1.27,13.56-2.86,12.35-32.64,22.3-57.5,29.83-74.61,1.21-2.85,3.77-8.71,7.68-17.58-22.6-2.53-40.23-7.77-52.88-15.69-1.2-3.16-1.81-5.54-1.81-7.12,0-1.9.6-2.85,1.81-2.85,3.31-.95,22.75-3.48,58.31-7.61,4.53,0,27.27-3.64,68.26-10.93,11.46-2.53,32.25-6.17,62.38-10.93,5.72-.64,11.15-.95,16.28-.95,12.35,0,23.35,2.06,33,6.17,12.96,5.39,19.44,13.63,19.44,24.71h-.03Z"/>
    <g>
      <g>
        <path class="st5" d="M1021.68,494.73c-9.36-8.83-21.06-15.41-35.09-19.72-14.04-4.32-30.32-6.58-48.85-6.77h-46.7v208.73h46.13c18.13,0,34.14-2.16,47.98-6.47,13.84-4.32,25.65-11,35.38-20.03,9.75-9.04,17.05-19.98,21.93-32.84,4.86-12.85,7.3-27.61,7.3-44.27s-2.34-32.79-7.02-45.94-11.7-24.04-21.05-32.69h-.01ZM1015.22,606.19c-3.52,10.04-8.72,18.57-15.6,25.59-6.87,7.04-15.14,12.31-24.78,15.82-9.65,3.53-20.68,5.17-33.09,4.98h-22.64v-161.15l22.92.3c12.99,0,24.36,1.71,34.09,5.12,9.75,3.41,17.87,8.53,24.36,15.37,6.68,6.82,11.7,15.2,15.04,25.15,3.34,9.94,5,21.43,5,34.48s-1.76,24.31-5.31,34.35h.01Z"/>
        <path class="st5" d="M937.17,678.21h-47.36v-211.2h47.93c18.54.18,35.1,2.48,49.22,6.82,14.13,4.34,26.09,11.07,35.57,20,9.46,8.74,16.65,19.91,21.37,33.17,4.71,13.23,7.09,28.82,7.09,46.35s-2.48,31.77-7.38,44.71c-4.92,12.99-12.41,24.19-22.24,33.31-9.82,9.11-21.88,15.95-35.85,20.31-13.91,4.33-30.18,6.53-48.35,6.53h0ZM892.27,675.74h44.89c17.92,0,33.94-2.16,47.61-6.41,13.61-4.25,25.36-10.9,34.91-19.76,9.56-8.85,16.83-19.74,21.61-32.37,4.79-12.66,7.22-27.41,7.22-43.84,0-17.25-2.34-32.57-6.95-45.53-4.58-12.89-11.56-23.72-20.72-32.19h0c-9.2-8.68-20.85-15.22-34.61-19.45-13.89-4.27-30.21-6.53-48.5-6.72h-45.45v206.27h-.01ZM943.58,653.83c-.61,0-1.23,0-1.85-.01h-23.85v-163.64l24.17.32c13.05,0,24.66,1.75,34.48,5.19,9.89,3.46,18.25,8.73,24.85,15.68,6.77,6.9,11.93,15.52,15.32,25.61,3.36,10.01,5.07,21.75,5.07,34.87s-1.81,24.65-5.38,34.76h0c-3.56,10.16-8.91,18.92-15.89,26.05-6.96,7.13-15.45,12.55-25.24,16.11-9.21,3.37-19.86,5.07-31.67,5.07h-.01ZM920.35,651.35h21.4c12.29.2,23.26-1.47,32.66-4.91,9.44-3.44,17.63-8.66,24.32-15.52,6.72-6.87,11.88-15.32,15.32-25.14h0c3.47-9.84,5.24-21.26,5.24-33.94s-1.66-24.33-4.94-34.08c-3.27-9.73-8.24-18.03-14.75-24.68-6.34-6.68-14.37-11.74-23.89-15.07-9.56-3.35-20.89-5.05-33.68-5.05l-21.68-.28v158.67Z"/>
      </g>
      <g>
        <polygon class="st5" points="1116.34 580.58 1191.7 580.58 1191.7 557.09 1116.34 557.09 1116.34 490.52 1195.99 490.52 1195.99 468.24 1088.28 468.24 1088.28 676.97 1198.86 676.97 1198.86 652.88 1116.34 652.88 1116.34 580.58"/>
        <path class="st5" d="M1200.09,678.21h-113.04v-211.2h110.17v24.74h-79.65v64.11h75.35v25.96h-75.35v69.84h82.51v26.56h.01ZM1089.52,675.74h108.1v-21.62h-82.51v-74.77h75.35v-21.02h-75.35v-69.04h79.65v-19.81h-105.24v206.27h0Z"/>
      </g>
      <g>
        <path class="st5" d="M1775.7,468.24h-33.8l-79.37,208.73h28.37l18.91-53.62h94.83l18.92,53.62h30.08l-77.93-208.73h0ZM1718.97,600.16l39.26-106.33,38.38,106.33h-77.64Z"/>
        <path class="st5" d="M1855.41,678.21h-32.73l-18.92-53.62h-93.08l-18.91,53.62h-31.04l80.31-211.2h35.51l.3.8,78.55,210.4h0ZM1824.43,675.74h27.43l-77.01-206.27h-32.09l-78.44,206.27h25.71l18.91-53.62h96.58l18.92,53.62h-.01ZM1798.37,601.4h-81.17l41.04-111.16,40.12,111.16h.01ZM1720.74,598.93h74.11l-36.64-101.5-37.47,101.5Z"/>
      </g>
      <g>
        <path class="st5" d="M1336.37,589.63c-2.01-3.42-3.95-6.12-5.87-8.13-1.91-2.21-4.07-4.02-6.45-5.43-2.39-1.4-5.11-2.51-8.16-3.3,7.07-1.61,13.32-3.86,18.77-6.78,5.45-2.91,9.98-6.57,13.6-10.99,3.83-4.43,6.65-9.39,8.45-14.91,1.82-5.53,2.72-11.61,2.72-18.23,0-8.84-1.42-16.61-4.29-23.34-2.87-6.74-7.16-12.3-12.89-16.73-5.74-4.41-12.85-7.73-21.36-9.93-8.49-2.22-18.47-3.43-29.93-3.62h-53.58v208.73h27.79v-92.48l15.76.3c4.97,0,9.31.46,13.03,1.36,3.73.91,6.83,2.25,9.32,4.07,2.67,1.8,5.06,4.26,7.16,7.37,2.1,3.12,4.01,6.78,5.74,11.01l26.36,68.36h29.79l-30.08-74.7c-1.91-5.03-3.87-9.24-5.88-12.65v.02ZM1305.13,559.8c-5.43,1.61-11.7,2.3-18.75,2.11h-21.2v-71.4l20.33.3c7.84,0,14.61.72,20.35,2.11,5.72,1.41,10.4,3.52,14.04,6.33,3.81,2.81,6.64,6.47,8.45,10.99,1.82,4.52,2.73,9.8,2.73,15.82,0,5.63-1,10.58-3.02,14.92-1.99,4.31-5,8.18-9.02,11.59-3.83,3.21-8.44,5.61-13.9,7.23h0Z"/>
        <path class="st5" d="M1374.15,678.21h-32.46l-.3-.79-26.36-68.36c-1.67-4.09-3.56-7.72-5.61-10.77-2-2.96-4.3-5.33-6.83-7.04-2.35-1.71-5.34-3.01-8.92-3.89-3.64-.88-7.92-1.33-12.73-1.33l-14.52-.28v92.45h-30.26v-211.2h54.81c11.5.18,21.66,1.41,30.24,3.66,8.6,2.22,15.94,5.63,21.8,10.14,5.87,4.54,10.33,10.33,13.27,17.23,2.91,6.83,4.39,14.84,4.39,23.82,0,6.74-.94,13.01-2.78,18.62-1.85,5.63-4.77,10.79-8.69,15.33-3.68,4.49-8.38,8.29-13.95,11.27-4.4,2.36-9.39,4.32-14.89,5.85,1.54.6,2.98,1.3,4.33,2.09,2.5,1.48,4.77,3.39,6.76,5.69,1.95,2.05,3.92,4.78,6,8.32h0c2.03,3.45,4.04,7.77,5.97,12.84l30.75,76.37-.02-.02ZM1343.38,675.74h27.11l-29.4-73c-1.89-4.96-3.84-9.15-5.8-12.49h0c-1.95-3.33-3.87-5.99-5.7-7.91-1.85-2.14-3.92-3.88-6.18-5.22-2.3-1.35-4.94-2.41-7.85-3.17l-4.89-1.28,4.93-1.12c6.95-1.58,13.16-3.82,18.46-6.67,5.29-2.83,9.74-6.42,13.23-10.68,3.73-4.31,6.49-9.18,8.24-14.51,1.76-5.36,2.66-11.37,2.66-17.85,0-8.64-1.41-16.33-4.19-22.85-2.77-6.5-6.98-11.96-12.51-16.24-5.59-4.3-12.63-7.57-20.91-9.71-8.39-2.19-18.36-3.39-29.64-3.58h-52.32v206.27h25.32v-92.5l17.01.32c4.98,0,9.47.47,13.29,1.4,3.96.97,7.15,2.36,9.75,4.27,2.76,1.86,5.28,4.45,7.46,7.68,2.15,3.19,4.12,6.97,5.86,11.24l26.06,67.6h.01ZM1288.55,563.18c-.73,0-1.46,0-2.21-.03h-22.4v-73.89l21.58.32c7.83,0,14.77.72,20.63,2.15,5.86,1.44,10.74,3.65,14.5,6.55,3.97,2.92,6.95,6.8,8.84,11.51,1.87,4.64,2.82,10.12,2.82,16.28,0,5.77-1.05,10.97-3.14,15.44-2.06,4.46-5.2,8.5-9.34,12.01-3.94,3.31-8.77,5.82-14.35,7.48h0c-4.93,1.46-10.62,2.19-16.93,2.19h0ZM1266.41,560.68h19.97c6.97.18,13.15-.51,18.4-2.06h0c5.26-1.56,9.78-3.91,13.46-6.99,3.85-3.27,6.78-7.03,8.69-11.16,1.93-4.14,2.91-8.99,2.91-14.4,0-5.84-.89-11-2.64-15.36-1.71-4.27-4.41-7.79-8.03-10.45-3.52-2.71-8.09-4.77-13.61-6.13-5.66-1.38-12.41-2.08-20.06-2.08l-19.09-.28v68.92h0Z"/>
      </g>
      <g>
        <path class="st5" d="M1521.44,629.98c-.38,1.2-.82,2.67-1.29,4.38-.47,1.7-.9,3.75-1.28,6.17-.38,2.4-.72,4.95-1,7.67-.29,2.71-.63,5.67-1,8.9-.2-2.41-.43-4.82-.72-7.23-.28-2.42-.62-4.73-.99-6.93-.39-2.21-.87-4.31-1.45-6.32-.57-2.01-1.22-4.13-1.99-6.33l-58.73-162.04h-42.11v208.73h24.63v-166.72c0-1.7-.09-3.86-.28-6.47,0-1.41-.05-2.92-.14-4.52-.1-1.61-.24-3.32-.43-5.13-.2-1.8-.34-3.76-.44-5.87l1.59,1.21c.57,2.51,1.14,4.86,1.71,7.07.57,2.21,1.11,4.17,1.59,5.87.47,1.71.9,3.17,1.27,4.37l63.04,170.19h24.64l62.75-167.47c.94-2.01,1.77-4.13,2.43-6.32.68-2.21,1.39-4.53,2.16-6.93.39-1.21.71-2.41,1-3.62.28-1.2.62-2.51,1-3.92.37-1.2.71-2.46.99-3.77.3-1.29.63-2.66,1-4.07-.37,2.82-.7,5.58-1,8.28-.28,2.71-.62,5.48-.99,8.28-.2,2.61-.34,5.28-.43,7.98-.09,2.7-.14,5.27-.14,7.68v163.86h27.21v-208.73h-41.53l-61.03,161.74h-.04Z"/>
        <path class="st5" d="M1625.23,678.21h-29.68v-165.09c0-2.39.05-4.98.14-7.73.09-2.62.22-5.04.38-7.35-.6,1.9-1.16,3.74-1.7,5.5-.64,2.15-1.48,4.33-2.49,6.48l-63.01,168.18h-26.36l-.3-.81-63.04-170.19c-.4-1.27-.83-2.74-1.31-4.47-.48-1.7-1.01-3.67-1.59-5.88-.09-.33-.17-.67-.26-1,.1,1.13.19,2.24.26,3.33.1,1.62.14,3.16.14,4.6.18,2.53.28,4.74.28,6.47v167.96h-27.1v-211.2h44.21l.3.81,58.73,162.04c.72,2.07,1.38,4.17,2.02,6.42.6,2.11,1.1,4.28,1.48,6.44.19,1.1.35,2.17.51,3.23.23-1.91.49-3.79.78-5.61.38-2.4.82-4.52,1.31-6.3.49-1.74.93-3.23,1.31-4.43l.02-.06,61.33-162.54h43.62v211.2h.02ZM1598.02,675.74h24.74v-206.27h-39.44l-60.72,160.92c-.37,1.17-.8,2.61-1.27,4.3-.46,1.69-.88,3.72-1.25,6.03-.39,2.45-.73,5.01-.99,7.6-.29,2.72-.63,5.68-1.01,8.91l-2.46-.04c-.21-2.59-.45-4.94-.72-7.19-.26-2.26-.58-4.51-.98-6.88-.36-2.08-.84-4.16-1.42-6.19-.63-2.2-1.27-4.25-1.97-6.26l-58.43-161.22h-40.01v206.27h22.16v-165.49c0-1.67-.09-3.82-.28-6.38,0-1.48-.05-2.97-.14-4.53-.11-1.64-.25-3.35-.43-5.08-.19-1.7-.34-3.65-.45-5.93l-.13-2.66,4.05,3.1.1.43c.57,2.48,1.14,4.84,1.71,7.04s1.1,4.15,1.58,5.84c.47,1.7.89,3.15,1.26,4.33l62.72,169.32h22.93l62.44-166.67c1-2.13,1.79-4.2,2.4-6.24.68-2.22,1.39-4.55,2.16-6.96.35-1.1.67-2.26.98-3.53.28-1.21.62-2.53,1.01-3.95.39-1.27.72-2.5.97-3.7.31-1.33.64-2.71,1.02-4.13l2.42.48c-.32,2.42-.64,5.05-1,8.26-.26,2.49-.58,5.21-.99,8.31-.18,2.42-.32,5.01-.42,7.86-.09,2.71-.14,5.28-.14,7.64v162.66Z"/>
      </g>
    </g>
  </g>
</svg>